<mxfile host="Electron" modified="2024-01-11T01:53:01.533Z" agent="Mozilla/5.0 (Windows NT 10.0; Win64; x64) AppleWebKit/537.36 (KHTML, like Gecko) draw.io/22.1.16 Chrome/120.0.6099.109 Electron/28.1.0 Safari/537.36" etag="dF7hyLJ4HmzP-RQeWLEL" version="22.1.16" type="device">
  <diagram name="第 1 页" id="yfZSFLy_TaHRn24a5Gfk">
    <mxGraphModel dx="453" dy="679" grid="1" gridSize="10" guides="1" tooltips="1" connect="1" arrows="1" fold="1" page="1" pageScale="1" pageWidth="827" pageHeight="1169" math="0" shadow="0">
      <root>
        <mxCell id="0" />
        <mxCell id="1" parent="0" />
        <mxCell id="m6prCLwaheyAx4RNFV8L-6" style="rounded=0;orthogonalLoop=1;jettySize=auto;html=1;entryX=0;entryY=0.5;entryDx=0;entryDy=0;" edge="1" parent="1" source="m6prCLwaheyAx4RNFV8L-1" target="m6prCLwaheyAx4RNFV8L-3">
          <mxGeometry relative="1" as="geometry" />
        </mxCell>
        <mxCell id="m6prCLwaheyAx4RNFV8L-7" value="&lt;font style=&quot;font-size: 8px;&quot;&gt;设置成功&lt;/font&gt;" style="edgeLabel;html=1;align=center;verticalAlign=middle;resizable=0;points=[];" vertex="1" connectable="0" parent="m6prCLwaheyAx4RNFV8L-6">
          <mxGeometry x="0.0524" y="1" relative="1" as="geometry">
            <mxPoint x="-1" y="1" as="offset" />
          </mxGeometry>
        </mxCell>
        <mxCell id="m6prCLwaheyAx4RNFV8L-1" value="Primary" style="rounded=1;whiteSpace=wrap;html=1;fillColor=#f8cecc;strokeColor=#b85450;fontStyle=1" vertex="1" parent="1">
          <mxGeometry x="200" y="390" width="60" height="30" as="geometry" />
        </mxCell>
        <mxCell id="m6prCLwaheyAx4RNFV8L-2" value="Backup" style="rounded=1;whiteSpace=wrap;html=1;fillColor=#dae8fc;strokeColor=#6c8ebf;fontStyle=1" vertex="1" parent="1">
          <mxGeometry x="460" y="390" width="60" height="30" as="geometry" />
        </mxCell>
        <mxCell id="m6prCLwaheyAx4RNFV8L-3" value="&lt;b&gt;test-and-set&lt;/b&gt; server1" style="rounded=1;whiteSpace=wrap;html=1;fillColor=#fff2cc;strokeColor=#d6b656;" vertex="1" parent="1">
          <mxGeometry x="320" y="370" width="80" height="30" as="geometry" />
        </mxCell>
        <mxCell id="m6prCLwaheyAx4RNFV8L-5" value="&lt;b&gt;test-and-set&lt;/b&gt; server2" style="rounded=1;whiteSpace=wrap;html=1;fillColor=#fff2cc;strokeColor=#d6b656;" vertex="1" parent="1">
          <mxGeometry x="320" y="410" width="80" height="30" as="geometry" />
        </mxCell>
        <mxCell id="m6prCLwaheyAx4RNFV8L-9" value="" style="endArrow=classic;html=1;rounded=0;exitX=1;exitY=0.5;exitDx=0;exitDy=0;entryX=0;entryY=0.5;entryDx=0;entryDy=0;dashed=1;" edge="1" parent="1" source="m6prCLwaheyAx4RNFV8L-1" target="m6prCLwaheyAx4RNFV8L-5">
          <mxGeometry width="50" height="50" relative="1" as="geometry">
            <mxPoint x="300" y="520" as="sourcePoint" />
            <mxPoint x="350" y="470" as="targetPoint" />
          </mxGeometry>
        </mxCell>
        <mxCell id="m6prCLwaheyAx4RNFV8L-10" value="&lt;font style=&quot;font-size: 8px;&quot;&gt;网络故障&lt;/font&gt;" style="edgeLabel;html=1;align=center;verticalAlign=middle;resizable=0;points=[];" vertex="1" connectable="0" parent="m6prCLwaheyAx4RNFV8L-9">
          <mxGeometry x="-0.006" y="1" relative="1" as="geometry">
            <mxPoint as="offset" />
          </mxGeometry>
        </mxCell>
        <mxCell id="m6prCLwaheyAx4RNFV8L-12" value="" style="endArrow=classic;html=1;rounded=0;exitX=0;exitY=0.5;exitDx=0;exitDy=0;entryX=1;entryY=0.5;entryDx=0;entryDy=0;dashed=1;" edge="1" parent="1" source="m6prCLwaheyAx4RNFV8L-2" target="m6prCLwaheyAx4RNFV8L-3">
          <mxGeometry width="50" height="50" relative="1" as="geometry">
            <mxPoint x="430" y="440" as="sourcePoint" />
            <mxPoint x="490" y="460" as="targetPoint" />
          </mxGeometry>
        </mxCell>
        <mxCell id="m6prCLwaheyAx4RNFV8L-13" value="&lt;font style=&quot;font-size: 8px;&quot;&gt;网络故障&lt;/font&gt;" style="edgeLabel;html=1;align=center;verticalAlign=middle;resizable=0;points=[];" vertex="1" connectable="0" parent="m6prCLwaheyAx4RNFV8L-12">
          <mxGeometry x="-0.006" y="1" relative="1" as="geometry">
            <mxPoint as="offset" />
          </mxGeometry>
        </mxCell>
        <mxCell id="m6prCLwaheyAx4RNFV8L-14" style="rounded=0;orthogonalLoop=1;jettySize=auto;html=1;entryX=1;entryY=0.5;entryDx=0;entryDy=0;exitX=0;exitY=0.5;exitDx=0;exitDy=0;" edge="1" parent="1" source="m6prCLwaheyAx4RNFV8L-2" target="m6prCLwaheyAx4RNFV8L-5">
          <mxGeometry relative="1" as="geometry">
            <mxPoint x="270" y="408" as="sourcePoint" />
            <mxPoint x="330" y="395" as="targetPoint" />
          </mxGeometry>
        </mxCell>
        <mxCell id="m6prCLwaheyAx4RNFV8L-15" value="&lt;font style=&quot;font-size: 8px;&quot;&gt;设置成功&lt;/font&gt;" style="edgeLabel;html=1;align=center;verticalAlign=middle;resizable=0;points=[];" vertex="1" connectable="0" parent="m6prCLwaheyAx4RNFV8L-14">
          <mxGeometry x="0.0524" y="1" relative="1" as="geometry">
            <mxPoint x="1" y="4" as="offset" />
          </mxGeometry>
        </mxCell>
      </root>
    </mxGraphModel>
  </diagram>
</mxfile>
